# xmcd CD database file
#
# Track frame offsets:
#	150
#	14394
#	29971
#	44520
#	61191
#	75110
#	92003
#	105504
#	121074
#	139290
#	155716
#	170012
#	184558
#	197016
#
# Disc length: 2823 seconds
#
# Revision: 3
# Processed by: cddbd v1.5.2PL0 Copyright (c) Steve Scherf et al.
# Submitted via: CDex 1.51
#
DISCID=b50b050e
DTITLE=Ataide e Alexandre - Acustico - Ao vivo
DYEAR=2002
DGENRE=Sertanejo
TTITLE0=Apaixonado Por Você
TTITLE1=Agenda Rabiscada
TTITLE2=Liguei Pra DIzer Que Te Amo
TTITLE3=Baby
TTITLE4=Coração Vai Lá
TTITLE5=Hoje Eu Sei
TTITLE6=Apenas Um Sorriso
TTITLE7=Ô De Casa, Ô De Fora
TTITLE8=Laço Aberto
TTITLE9=Página De Amigos
TTITLE10=Larga Dele
TTITLE11=Deus Me Livre
TTITLE12=Amor Carrapicho
TTITLE13=A Outra Mulher
EXTD=YEAR: 2002
EXTT0=
EXTT1=
EXTT2=
EXTT3=
EXTT4=
EXTT5=
EXTT6=
EXTT7=
EXTT8=
EXTT9=
EXTT10=
EXTT11=
EXTT12=
EXTT13=
PLAYORDER=
